<?xml version="1.0" standalone="no"?>
<!DOCTYPE svg PUBLIC "-//W3C//DTD SVG 20010904//EN"
 "http://www.w3.org/TR/2001/REC-SVG-20010904/DTD/svg10.dtd">
<svg version="1.0" xmlns="http://www.w3.org/2000/svg"
 width="256.000000pt" height="256.000000pt" viewBox="0 0 256.000000 256.000000"
 preserveAspectRatio="xMidYMid meet">

<g transform="translate(0.000000,256.000000) scale(0.100000,-0.100000)"
fill="#000000" stroke="none">
<path d="M1120 2549 c-265 -34 -519 -156 -715 -341 -199 -188 -324 -413 -382
-688 -24 -117 -24 -363 0 -480 57 -271 178 -492 371 -678 511 -493 1311 -479
1803 32 494 511 480 1310 -31 1803 -278 270 -668 401 -1046 352z m305 -494
c86 -23 138 -50 200 -107 99 -90 156 -250 141 -394 -13 -124 -50 -190 -138
-244 -134 -83 -148 -95 -173 -144 -14 -28 -25 -66 -25 -86 0 -56 -10 -60 -145
-60 -113 0 -123 2 -142 22 -11 13 -23 33 -25 44 -9 35 9 189 25 221 25 48 91
109 180 166 109 71 131 98 123 156 -11 83 -67 131 -168 145 -69 10 -120 -16
-193 -99 -80 -91 -95 -95 -160 -51 -160 110 -168 137 -79 253 111 144 210 191
414 192 66 1 128 -5 165 -14z m-43 -1125 c62 -42 83 -84 83 -166 0 -66 -3 -76
-31 -111 -45 -55 -86 -76 -149 -76 -127 0 -215 110 -191 238 8 42 67 112 111
132 45 20 136 12 177 -17z"/>
</g>
</svg>
